# xmcd
#
# Track frame offsets:
#	150
#	17762
#	32632
#	51120
#	68922
#	87146
#	104900
#	123023
#	137398
#	161595
#	177430
#
# Disc length: 2818 seconds
# Revision: 0
# Processed by: cddbd v1.5.2PL0 Copyright (c) Steve Scherf et al.
# Submitted via: dBpowerAMP V12.0
#
DISCID=8c0b000b
DTITLE=Various Artist - Hats Off to Stevie Ray
DYEAR=1993
DGENRE=Blues
TTITLE0=Pat Travers - Cold Shot
TTITLE1=Tony Spinner - Empty Arms
TTITLE2=Craig Erickson - Telephone Song
TTITLE3=Steve Hunter - Lenny
TTITLE4=Frank Marino - The Things (That) I Used To Do
TTITLE5=Rick Derringer - Pride and Joy
TTITLE6=Jon Butcher - Crossfire
TTITLE7=Kevin Russell - Tell Me
TTITLE8=Ricky Medlocke - Texas Flood
TTITLE9=Leslie West - Look At Little Sister
TTITLE10=Kevin Russell - Blues For Stevie
EXTD=
EXTT0=
EXTT1=
EXTT2=
EXTT3=
EXTT4=
EXTT5=
EXTT6=
EXTT7=
EXTT8=
EXTT9=
EXTT10=
PLAYORDER=
